<svg width="883" height="969" viewBox="0 0 883 969" fill="none" xmlns="http://www.w3.org/2000/svg">
<g clip-path="url(#clip0_10_51)">
<path d="M425.407 779.7H49.8434C31.337 779.7 16.4163 764.664 16.4163 746.273V515.522H425.407V779.7Z" fill="#E19C2F"/>
<path d="M833.241 779.7H425.407V515.522H866.668V746.157C866.784 764.664 851.747 779.7 833.241 779.7Z" fill="#FFD300"/>
<path d="M343.516 515.522H98.4226V710.301H343.516V515.522Z" fill="#7D4336"/>
<path d="M792.527 515.522H495.5V710.301H792.527V515.522Z" fill="#9F5B46"/>
<path d="M343.516 515.522H98.4226V543.86H343.516V515.522Z" fill="#502A23"/>
<path d="M343.54 710.339L343.54 543.897H315.202L315.202 710.339H343.54Z" fill="#502A23"/>
<path opacity="0.7" d="M792.527 515.522H495.5V543.86H792.527V515.522Z" fill="#502A23"/>
<path opacity="0.7" d="M792.547 710.342V543.9H764.209V710.342H792.547Z" fill="#502A23"/>
<path opacity="0.46" d="M792.466 543.881H866.722V515.543H792.466V543.881Z" fill="#AD6F00"/>
<path opacity="0.46" d="M425.456 543.881H495.549V515.543H425.456V543.881Z" fill="#AD6F00"/>
<path opacity="0.46" d="M343.432 543.881H425.439V515.543H343.432V543.881Z" fill="#AD6F00"/>
<path opacity="0.46" d="M16.359 543.881H98.3654V515.543H16.359V543.881Z" fill="#AD6F00"/>
<path opacity="0.46" d="M425.407 779.7H833.241C851.747 779.7 866.668 764.664 866.668 746.273H425.407V779.7Z" fill="#AD6F00"/>
<path opacity="0.46" d="M49.8434 779.7H425.407V746.273H16.4163C16.4163 764.664 31.4527 779.7 49.8434 779.7Z" fill="#AD6F00"/>
<path d="M425.407 189H49.8434C31.4527 189 16.4163 204.036 16.4163 222.427V453.063H425.407V189Z" fill="#E19C2F"/>
<path d="M833.241 189H425.407V453.178H866.668V222.427C866.784 204.036 851.747 189 833.241 189Z" fill="#FFD300"/>
<path d="M343.516 258.283H98.4226V441.496H343.516V258.283Z" fill="#7D4336"/>
<path d="M792.527 258.283H495.5V441.496H792.527V258.283Z" fill="#9F5B46"/>
<path d="M343.516 258.283H98.4226V286.621H343.516V258.283Z" fill="#502A23"/>
<path d="M343.545 441.54L343.545 286.664H315.208V441.54H343.545Z" fill="#502A23"/>
<path opacity="0.7" d="M792.527 258.283H495.5V286.621H792.527V258.283Z" fill="#502A23"/>
<path opacity="0.7" d="M792.553 441.543V286.667H764.215V441.543H792.553Z" fill="#502A23"/>
<path opacity="0.32" d="M425.407 189H833.241C851.747 189 866.668 204.036 866.668 222.427H425.407V189Z" fill="white"/>
<path opacity="0.12" d="M49.8434 189H425.407V222.427H16.4163C16.4163 204.036 31.4527 189 49.8434 189Z" fill="white"/>
<path d="M425.407 453.178H16.4163V515.637H425.407V453.178Z" fill="#E19C2F"/>
<path d="M866.668 441.612H425.407V515.637H866.668V441.612Z" fill="#FFD300"/>
<path opacity="0.46" d="M732.728 441.612H554.026V515.637H732.728V441.612Z" fill="#AD6F00"/>
<path d="M694.212 542.818H593.815C582.017 542.818 572.532 533.334 572.532 521.536V427.269C572.532 415.472 582.017 405.987 593.815 405.987H694.212C706.01 405.987 715.494 415.472 715.494 427.269V521.536C715.494 533.334 705.894 542.818 694.212 542.818Z" fill="#FFD300"/>
<path d="M655.117 471.222C659.512 467.868 662.404 462.547 662.404 456.648C662.404 446.47 654.192 438.258 644.013 438.258C633.835 438.258 625.623 446.47 625.623 456.648C625.623 462.663 628.514 467.868 632.91 471.222L619.492 513.093H643.898H668.303L655.117 471.222Z" fill="#9F5B46"/>
</g>
<defs>
<clipPath id="clip0_10_51">
<rect width="850.367" height="590.7" fill="white" transform="translate(16.4163 189)"/>
</clipPath>
</defs>
</svg>
