<svg width="883" height="969" viewBox="0 0 883 969" fill="none" xmlns="http://www.w3.org/2000/svg">
<g clip-path="url(#clip0_10_140)">
<path d="M441.5 846.844C625.687 846.844 775 697.531 775 513.344C775 329.158 625.687 179.844 441.5 179.844C257.313 179.844 108 329.158 108 513.344C108 697.531 257.313 846.844 441.5 846.844Z" fill="#E19C2F"/>
<path d="M488.299 843.588C511.095 840.331 533.167 834.904 554.275 827.305V270.788H488.299V843.588Z" fill="#D18B24"/>
<path d="M775 513.345C775 500.198 774.156 487.171 772.708 474.386L700.943 303.957C686.228 285.744 669.583 269.1 651.37 254.385L579.725 418.541V816.932C695.032 764.223 775 648.192 775 513.345Z" fill="#D18B24"/>
<path d="M441.5 790.156C625.687 790.156 775 640.842 775 456.656C775 272.469 625.687 123.156 441.5 123.156C257.313 123.156 108 272.469 108 456.656C108 640.842 257.313 790.156 441.5 790.156Z" fill="#FFD300"/>
<path d="M441.5 692.457C571.73 692.457 677.302 586.885 677.302 456.655C677.302 326.426 571.73 220.854 441.5 220.854C311.27 220.854 205.698 326.426 205.698 456.655C205.698 586.885 311.27 692.457 441.5 692.457Z" fill="#D18B24"/>
<path d="M441.5 692.458C571.463 692.458 676.82 593.852 676.82 472.215C676.82 350.578 571.463 251.972 441.5 251.972C311.537 251.972 206.181 350.578 206.181 472.215C206.181 593.852 311.537 692.458 441.5 692.458Z" fill="#E19C2F"/>
</g>
<defs>
<clipPath id="clip0_10_140">
<rect width="667" height="723.689" fill="white" transform="translate(108 123.156)"/>
</clipPath>
</defs>
</svg>
