<svg width="883" height="969" viewBox="0 0 883 969" fill="none" xmlns="http://www.w3.org/2000/svg">
<g clip-path="url(#clip0_10_180)">
<path d="M382.921 141.607L169.156 265.861C133.672 286.508 111.789 324.464 111.665 365.634L110.924 604.002C110.8 645.42 132.807 683.747 168.785 704.517L383.91 828.771C419.764 849.541 464.025 849.418 499.879 828.647L713.644 704.394C749.127 683.747 771.134 645.791 771.258 604.744L771.876 366.376C772 324.958 749.869 286.631 714.015 265.861L498.89 141.484C463.036 120.713 418.775 120.837 382.921 141.607Z" fill="#FFB800"/>
<path d="M722.793 271.3L496.665 138.393C462.912 118.735 420.382 119.848 386.506 139.382L157.657 271.548C141.09 281.068 141.09 305.053 157.657 314.696L356.463 430.295C407.524 459.967 470.578 460.091 521.639 430.542L722.546 314.573C739.236 304.806 739.236 280.82 722.793 271.3Z" fill="#FFD300"/>
<path d="M463.53 196.007C480.098 205.527 480.098 220.981 463.778 230.501C447.334 240.021 420.629 240.021 404.062 230.501C387.495 220.981 387.371 205.403 403.815 195.883C420.258 186.487 446.963 186.487 463.53 196.007Z" fill="#BF7819"/>
<path d="M470.578 225.308C469.341 226.545 467.981 227.781 466.374 228.894C466.25 222.712 462.047 216.53 453.887 211.832C437.32 202.312 410.615 202.312 394.171 211.832C393.306 212.327 392.44 212.945 391.575 213.439C391.575 211.956 391.699 210.472 392.193 208.989C393.553 204.167 397.509 199.592 403.815 195.883C420.258 186.363 446.963 186.363 463.53 195.883C477.378 203.919 479.727 216.036 470.578 225.308Z" fill="#AA630F"/>
<path d="M616.467 284.282C633.034 293.802 633.034 309.257 616.714 318.776C600.394 328.296 573.566 328.296 556.999 318.776C540.431 309.257 540.308 293.679 556.751 284.159C573.195 274.762 599.9 274.762 616.467 284.282Z" fill="#BF7819"/>
<path d="M623.514 313.707C622.278 314.944 620.918 316.18 619.311 317.293C619.187 311.111 614.983 304.929 606.824 300.231C590.256 290.711 563.551 290.711 547.108 300.231C546.242 300.726 545.377 301.344 544.511 301.838C544.511 300.355 544.635 298.871 545.13 297.387C546.49 292.566 550.446 287.991 556.751 284.282C573.195 274.762 599.9 274.762 616.467 284.282C630.191 292.318 632.663 304.311 623.514 313.707Z" fill="#AA630F"/>
<path d="M482.694 362.049C499.261 371.569 499.261 387.023 482.941 396.543C466.498 406.063 439.793 406.063 423.226 396.543C406.659 387.023 406.535 371.445 422.978 361.925C439.422 352.529 466.127 352.529 482.694 362.049Z" fill="#BF7819"/>
<path d="M489.618 391.474C488.381 392.71 487.021 393.946 485.414 395.059C485.291 388.877 481.087 382.696 472.927 377.998C456.36 368.478 429.655 368.478 413.211 377.998C412.346 378.492 411.48 379.11 410.615 379.605C410.615 378.121 410.739 376.638 411.233 375.154C412.593 370.332 416.549 365.758 422.855 362.049C439.298 352.529 466.003 352.529 482.571 362.049C496.418 370.085 498.767 382.077 489.618 391.474Z" fill="#AA630F"/>
<path d="M329.758 273.773C346.325 283.293 346.325 298.747 330.005 308.267C313.685 317.787 286.856 317.787 270.289 308.267C253.722 298.747 253.599 283.169 270.042 273.649C286.486 264.253 313.191 264.253 329.758 273.773Z" fill="#BF7819"/>
<path d="M336.681 303.198C335.445 304.435 334.085 305.671 332.478 306.784C332.354 300.602 328.15 294.42 319.99 289.722C303.423 280.202 276.718 280.202 260.275 289.722C259.409 290.217 258.544 290.835 257.678 291.329C257.678 289.846 257.802 288.362 258.297 286.879C259.657 282.057 263.613 277.482 269.918 273.773C286.362 264.253 313.067 264.253 329.634 273.773C343.481 281.809 345.83 293.802 336.681 303.198Z" fill="#AA630F"/>
<path d="M770.763 605.486L770.145 380.717C770.022 352.034 739.113 334.231 714.262 348.572L502.723 470.724C471.69 488.651 452.651 521.785 452.774 557.639L453.516 811.585C453.516 830.501 474.039 842.37 490.483 832.851L714.51 703.528C749.375 683.252 770.887 645.914 770.763 605.486Z" fill="#FFD300"/>
<path d="M691.39 600.417C707.339 591.144 720.32 598.562 720.444 616.984C720.444 635.406 707.586 657.784 691.637 666.933C675.688 676.205 662.706 668.787 662.583 650.365C662.583 631.944 675.441 609.566 691.39 600.417Z" fill="#BF7819"/>
<path d="M720.444 616.86C720.444 635.282 707.586 657.66 691.637 666.809C681.87 672.496 673.216 671.878 668.023 666.438C671.485 666.191 675.441 664.831 679.521 662.482C695.47 653.209 708.452 630.831 708.328 612.533C708.328 605.362 706.35 599.922 703.012 596.46C713.15 595.595 720.444 603.26 720.444 616.86Z" fill="#AA630F"/>
<path d="M621.412 560.483C637.361 551.21 650.343 558.628 650.467 577.05C650.467 595.471 637.609 617.849 621.66 626.998C605.711 636.271 592.729 628.853 592.605 610.431C592.482 592.01 605.463 569.632 621.412 560.483Z" fill="#BF7819"/>
<path d="M650.466 576.926C650.466 595.348 637.608 617.726 621.659 626.875C611.892 632.562 603.238 631.944 598.045 626.504C601.507 626.257 605.463 624.897 609.543 622.548C625.492 613.275 638.474 590.897 638.35 572.599C638.35 565.428 636.372 559.988 633.034 556.527C643.172 555.661 650.343 563.326 650.466 576.926Z" fill="#AA630F"/>
<path d="M551.311 520.549C567.26 511.276 580.242 518.694 580.366 537.116C580.489 555.537 567.508 577.915 551.559 587.064C535.61 596.337 522.628 588.919 522.505 570.497C522.381 552.076 535.363 529.698 551.311 520.549Z" fill="#BF7819"/>
<path d="M580.366 537.116C580.366 555.537 567.508 577.915 551.559 587.064C541.791 592.751 533.137 592.133 527.944 586.693C531.406 586.446 535.362 585.086 539.442 582.737C555.391 573.464 568.373 551.086 568.249 532.788C568.249 525.618 566.271 520.178 562.933 516.716C573.071 515.727 580.366 523.392 580.366 537.116Z" fill="#AA630F"/>
<path d="M110.8 605.486L111.418 380.717C111.542 352.034 142.45 334.231 167.301 348.572L378.84 470.724C409.873 488.651 428.913 521.785 428.789 557.639L428.047 811.585C428.047 830.501 407.524 842.37 391.08 832.851L167.177 703.405C132.189 683.252 110.676 645.914 110.8 605.486Z" fill="#FFD300"/>
<path d="M269.918 542.927C249.642 531.181 233.075 540.577 233.075 563.944C232.951 587.311 249.395 615.748 269.671 627.369C289.947 639.115 306.514 629.595 306.514 606.351C306.638 583.108 290.194 554.672 269.918 542.927Z" fill="#BF7819"/>
<path d="M233.075 563.944C232.951 587.311 249.395 615.748 269.671 627.493C282.034 634.664 293.038 633.922 299.714 626.998C295.263 626.627 290.318 625.02 285.125 622.053C264.849 610.308 248.406 581.872 248.529 558.628C248.529 549.479 251.002 542.556 255.329 538.105C242.224 536.992 233.075 546.636 233.075 563.944Z" fill="#AA630F"/>
</g>
<defs>
<clipPath id="clip0_10_180">
<rect width="661.2" height="720.05" fill="white" transform="translate(110.8 124.175)"/>
</clipPath>
</defs>
</svg>
