<svg width="883" height="969" viewBox="0 0 883 969" fill="none" xmlns="http://www.w3.org/2000/svg">
<g clip-path="url(#clip0_10_388)">
<path d="M382.872 244.334C369.791 244.896 357.274 241.661 357.274 241.661C356.43 242.927 358.54 238.286 360.227 230.832C361.493 225.346 362.759 218.173 362.478 210.719C362.478 203.124 360.931 195.107 356.852 187.653C356.43 186.95 356.149 186.387 355.727 185.543C351.648 179.073 345.459 173.166 336.317 168.806C334.911 167.962 333.364 167.4 331.676 166.837C326.894 164.868 321.268 163.321 314.939 162.196C314.095 162.055 313.392 161.914 312.548 161.914C308.188 161.211 303.828 161.352 299.608 161.914C290.466 162.899 282.027 166.415 274.01 171.619C271.198 173.447 268.385 175.416 265.712 177.526C260.086 182.027 254.742 187.09 249.257 192.575C247.991 193.841 246.725 195.107 245.459 196.514C237.723 204.671 229.988 213.391 221.69 221.689C220.424 223.096 219.158 224.362 217.892 225.628C211.563 231.816 205.234 237.583 198.483 242.787C197.217 243.63 195.951 244.615 194.826 245.459H194.685C187.231 250.663 179.074 255.023 170.353 257.976C169.228 258.398 167.962 258.68 166.837 259.102C154.601 262.477 140.958 263.04 125.487 259.524C123.377 258.961 121.267 258.398 119.017 257.836C117.892 257.555 116.485 257.133 115.36 256.711C103.968 252.913 94.5444 248.272 86.9495 243.068C85.6837 242.224 84.6991 241.38 83.574 240.677C62.6175 224.221 56.1477 203.265 56.2884 183.293C56.2884 181.605 56.2884 180.058 56.429 178.511C57.4135 160.227 63.4614 143.208 68.384 132.378C69.7905 129.425 71.0563 126.893 72.0409 124.783C73.588 121.689 74.5725 120.142 74.5725 120.142C74.5725 120.142 89.7624 116.063 103.827 118.454C106.64 119.017 109.172 120.001 111 121.549C118.736 127.174 120.002 138.004 120.002 138.004C120.002 138.004 90.6063 192.857 136.457 213.532C182.168 234.348 195.529 144.755 277.949 117.188C360.368 89.7623 398.061 159.383 410.157 208.891C417.049 236.739 399.468 243.63 382.872 244.334Z" fill="#9F5B46"/>
<path opacity="0.7" d="M382.872 244.334C373.73 239.974 365.713 234.629 360.368 230.832C361.634 225.346 362.9 218.173 362.619 210.719C368.807 206.078 376.402 202.421 380.481 199.748C388.216 194.404 388.076 186.809 382.872 180.48C379.215 176.12 365.15 183.152 357.133 187.653C356.711 186.95 356.43 186.387 356.008 185.543C360.368 180.761 366.275 174.01 369.51 170.634C374.995 165.009 369.229 147.287 363.181 141.52C357.133 135.754 339.412 157.695 336.458 168.665V168.806C334.77 174.995 332.379 172.463 331.817 166.837C331.395 162.758 332.098 156.992 334.911 151.788C341.662 139.692 348.413 135.191 342.928 129.003C337.302 122.955 321.831 120.845 316.908 123.096C311.985 125.346 309.594 147.287 311.282 154.46C311.845 156.71 312.267 159.242 312.548 161.633C308.188 160.93 303.828 161.07 299.609 161.633C297.921 152.913 297.78 138.145 298.061 132.519C298.624 124.643 280.059 127.737 271.62 133.363C263.181 138.989 259.383 141.52 264.025 154.319C266.416 161.07 270.635 167.118 274.011 171.338C271.198 173.166 268.385 175.135 265.712 177.245C259.665 167.822 252.21 149.959 250.241 149.256C248.132 148.553 227.597 166.696 228.019 173.307C228.441 177.948 241.662 187.372 249.257 192.294C247.991 193.56 246.725 194.826 245.459 196.232C238.708 195.248 224.222 180.902 219.861 183.011C215.642 185.121 205.515 200.03 206.641 205.093C207.484 208.469 216.205 216.626 221.69 221.408C220.424 222.815 219.158 224.08 217.892 225.346C211.985 220.283 200.874 208.187 194.264 207.062C185.543 205.656 176.401 216.345 176.964 222.955C177.386 228.019 192.013 238.286 198.483 242.646C197.217 243.49 195.951 244.474 194.826 245.318H194.686C191.732 247.147 177.667 227.878 171.901 226.331C165.994 224.784 153.054 221.971 148.835 229.144C145.6 234.488 160.93 249.397 170.494 257.976C169.369 258.398 168.103 258.68 166.978 259.102C161.915 255.304 151.366 246.865 145.6 237.864C137.864 225.768 133.082 227.597 125.346 223.518C117.47 219.58 118.033 240.677 122.252 251.507C123.377 254.32 124.503 257.133 125.628 259.524C123.518 258.961 121.408 258.398 119.158 257.836C117.189 248.834 115.923 236.879 115.782 227.597C115.782 218.314 111 210.297 107.766 204.952C105.093 200.874 91.5911 226.05 87.0903 242.927C85.8245 242.083 84.84 241.239 83.7148 240.536C83.8555 238.567 84.1368 236.598 84.6993 234.488C87.6529 224.502 100.171 202.843 101.436 198.061C102.562 193.279 99.8893 184.699 99.3267 176.401C98.9047 167.962 63.3209 175.416 56.2886 183.293C56.2886 181.605 56.2886 180.058 56.4292 178.511C65.1494 169.791 84.1368 170.213 90.6065 163.883C96.9357 157.414 100.311 149.959 99.8893 144.474C99.4673 139.129 91.1691 131.675 77.8076 131.675C74.4321 131.675 71.1972 131.956 68.3842 132.378C69.7907 129.425 71.0565 126.893 72.0411 124.783C74.854 124.08 77.8076 123.799 81.0425 124.221C95.8105 126.753 98.9047 135.895 109.172 123.658C109.875 122.814 110.438 122.111 111.141 121.408C118.877 127.034 120.142 137.864 120.142 137.864C120.142 137.864 90.6065 192.857 136.458 213.532C182.168 234.348 195.529 144.755 277.949 117.188C360.368 89.7623 398.062 159.383 410.157 208.891C417.049 236.739 399.468 243.63 382.872 244.334Z" fill="#502A23"/>
<path d="M790.327 657.556C780.201 685.685 766.277 711.283 749.54 734.208C671.48 840.397 530.27 887.373 400.172 840.116C241.943 782.732 160.227 608.048 217.611 449.82C236.317 398.202 267.541 354.883 306.641 321.69C311.423 313.814 315.08 307.203 315.924 303.124C318.315 290.466 307.485 265.993 319.299 248.412C329.145 233.645 361.775 211.985 398.343 203.124C405.657 201.296 412.97 200.03 420.425 199.467C465.573 195.67 469.933 240.114 483.294 249.819C483.294 249.819 483.294 249.819 483.435 249.819C524.363 247.006 566.557 252.491 607.767 267.4C765.855 324.784 847.571 499.468 790.327 657.556Z" fill="#FFC200"/>
<path d="M749.399 734.208C671.339 840.397 530.129 887.373 400.031 840.116C241.943 782.732 160.227 608.048 217.611 449.819C236.317 398.202 267.541 354.883 306.641 321.69C311.423 313.813 315.08 307.203 315.923 303.124C318.314 290.466 307.485 265.993 319.299 248.412C329.144 233.644 361.775 211.985 398.343 203.124C371.057 236.879 413.673 266.556 411.564 276.964C408.891 289.481 281.043 397.077 350.804 615.361C406.078 788.217 618.175 806.079 749.399 734.208Z" fill="#FFB000"/>
<path d="M519.581 314.517C382.591 326.19 316.768 523.097 404.532 647.429C492.296 771.761 697.781 737.021 724.786 569.51C751.931 401.859 575.559 309.735 519.581 314.517Z" fill="#FFD300"/>
<path d="M537.724 296.233C599.75 322.674 695.25 384.418 720.566 518.737C730.13 569.651 722.676 616.065 706.783 656.852C703.548 665.01 701.719 673.73 701.86 682.591C702.001 696.234 706.783 710.58 729.146 696.656C741.241 689.061 750.805 677.949 756.853 665.01C777.247 621.55 786.952 568.807 775.7 505.797C747.57 349.116 618.315 300.452 541.241 285.262C534.349 283.856 531.255 293.56 537.724 296.233Z" fill="white"/>
</g>
<defs>
<clipPath id="clip0_10_388">
<rect width="752.323" height="747.4" fill="white" transform="translate(56.2886 111)"/>
</clipPath>
</defs>
</svg>
