<svg width="883" height="969" viewBox="0 0 883 969" fill="none" xmlns="http://www.w3.org/2000/svg">
<g clip-path="url(#clip0_10_14)">
<path d="M70.0001 484.629C70.1237 280.084 236.579 113.876 441.247 114C645.916 114.124 812.124 280.579 812 485.247C811.876 689.916 645.297 856.124 440.753 856C236.084 855.876 69.8764 689.297 70.0001 484.629Z" fill="#9F5B46"/>
<path opacity="0.4" d="M441.124 161.612C619.575 161.735 764.388 306.673 764.265 485.124C764.141 663.575 619.08 808.388 440.629 808.265C262.302 808.265 117.488 663.204 117.612 484.753C117.735 306.302 262.673 161.488 441.124 161.612Z" fill="#502A23"/>
<path d="M717.89 599.268C713.314 614.85 704.905 628.701 696.619 642.428C684.5 662.338 670.278 680.888 653.336 696.965C649.502 697.336 647.276 694.615 644.926 692.389C620.317 667.779 595.707 643.293 571.221 618.684C569.119 616.581 566.522 614.603 566.274 611.14C567.758 605.451 572.829 602.731 576.168 598.65C585.319 587.52 593.11 575.524 599.541 562.539C601.272 559.2 602.385 555.243 606.095 553.388C609.31 552.398 612.155 553.882 614.875 555.119C647.152 568.475 679.429 581.831 711.83 595.063C714.18 595.929 716.777 596.547 717.89 599.268Z" fill="#E19C2F"/>
<path d="M326.732 761.89C310.903 757.067 296.805 748.781 282.954 740.124C263.167 727.758 244.246 714.154 228.788 696.346C228.788 692.76 231.632 691.029 233.735 688.926C258.097 664.44 282.459 640.078 306.945 615.716C309.295 613.366 311.274 610.522 314.984 610.274C317.704 610.645 319.436 612.624 321.291 614.355C333.286 626.104 347.013 635.502 362.101 642.799C365.934 644.654 370.386 645.89 372.736 650.095C373.602 652.816 372.612 655.165 371.623 657.515C358.143 689.916 344.911 722.44 331.308 754.841C330.195 757.561 329.453 760.406 326.732 761.89Z" fill="#E19C2F"/>
<path d="M555.268 208.11C571.963 213.428 587.05 222.208 601.643 231.607C620.44 243.603 638.372 256.711 653.212 273.777C653.212 277.364 650.368 279.095 648.265 281.197C623.903 305.683 599.541 330.046 575.055 354.408C572.705 356.758 570.726 359.602 567.016 359.849C561.451 358.365 558.731 353.295 554.65 349.832C543.52 340.681 531.524 332.89 518.539 326.583C515.2 324.852 511.243 323.739 509.388 320.029C508.522 317.308 509.511 314.958 510.501 312.609C523.98 280.208 537.213 247.684 550.816 215.283C551.805 212.439 552.547 209.594 555.268 208.11Z" fill="#E19C2F"/>
<path d="M555.268 208.11C544.509 234.575 533.626 261.04 522.867 287.504C518.415 298.387 514.211 309.27 510.006 320.276C507.162 322.255 504.565 320.523 501.968 319.534C484.531 313.227 466.352 310.135 447.925 308.651C444.957 308.404 441.618 308.651 439.763 305.436C438.279 301.973 438.527 298.387 438.527 294.801C438.527 262.153 438.527 229.381 438.527 196.733C438.527 192.776 437.908 188.447 440.876 184.985C479.831 184.614 517.302 192.281 553.413 206.626C554.155 206.874 554.65 207.616 555.268 208.11Z" fill="#FFD300"/>
<path d="M326.732 761.89C337.738 734.931 348.868 708.095 359.627 681.012C363.832 670.624 368.902 660.607 371.994 649.724C374.838 647.746 377.435 649.477 380.032 650.466C397.469 656.897 415.648 659.865 434.075 661.349C437.043 661.596 440.382 661.349 442.237 664.564C443.721 668.027 443.473 671.613 443.473 675.2C443.473 707.848 443.473 740.619 443.473 773.267C443.473 777.225 444.092 781.553 441.124 785.016C402.045 785.51 364.698 777.719 328.587 763.374C327.845 763.127 327.35 762.385 326.732 761.89Z" fill="#FFD300"/>
<path d="M163.863 599.515C151.991 573.051 145.56 545.102 142.469 516.411C141.356 506.023 140.243 495.635 140.985 485.124C143.582 482.527 147.044 482.527 150.26 482.527C184.763 482.403 219.142 482.403 253.645 482.527C256.242 482.527 258.715 482.65 261.189 483.64C263.291 484.629 264.157 486.484 264.28 488.586C265.393 509.733 270.093 530.015 276.4 550.172C276.523 554.995 273.061 556.85 269.351 558.334C236.332 571.938 203.56 585.788 170.541 599.268C168.315 600.134 166.089 600.752 163.863 599.515Z" fill="#E19C2F"/>
<path d="M717.89 599.268C685.736 586.159 653.583 572.927 621.553 559.818C616.359 557.716 611.042 555.861 605.848 553.882C603.869 551.038 605.6 548.441 606.59 545.844C613.02 528.407 615.988 510.228 617.472 491.802C617.72 488.834 617.472 485.495 620.688 483.64C624.15 482.156 627.737 482.403 631.323 482.403C663.971 482.403 696.743 482.403 729.391 482.403C733.348 482.403 737.676 481.785 741.139 484.753C741.757 523.831 733.719 561.179 719.497 597.289C719.126 598.155 718.384 598.65 717.89 599.268Z" fill="#FFD300"/>
<path d="M440.876 184.985C440.876 225.424 440.876 265.863 440.876 306.302C436.919 310.135 431.601 308.651 427.026 309.022C409.341 310.506 392.523 315.577 375.704 320.276C370.51 320.276 368.902 316.195 367.418 312.485C354.062 280.084 340.583 247.56 327.103 215.159C326.114 212.81 325.124 210.336 326.608 207.863C349.363 197.475 373.354 191.539 398.088 187.829C412.186 185.727 426.531 184.243 440.876 184.985Z" fill="#E19C2F"/>
<path d="M441.124 785.015C441.124 744.576 441.124 704.137 441.124 663.698C445.081 659.865 450.399 661.349 454.974 660.978C472.659 659.494 489.477 654.423 506.296 649.724C510.624 649.724 512.603 652.692 513.963 656.155C527.814 689.297 541.417 722.44 555.268 755.583C556.134 757.809 556.752 759.911 555.515 762.261C519.034 777.966 480.821 785.262 441.124 785.015Z" fill="#E19C2F"/>
<path d="M741.015 484.876C700.576 484.876 660.137 484.876 619.698 484.876C615.865 480.795 617.349 475.601 616.978 471.026C615.494 453.341 610.423 436.523 605.724 419.704C605.724 414.881 609.187 413.15 612.773 411.666C645.174 398.31 677.574 384.706 709.975 371.474C712.572 370.485 715.169 369.124 718.137 370.485C730.256 397.32 736.563 425.764 739.655 454.949C740.768 464.966 741.757 474.859 741.015 484.876Z" fill="#E19C2F"/>
<path d="M555.515 762.137C540.675 726.026 525.712 689.792 510.872 653.681C510.253 652.197 509.511 650.961 507.904 650.342C509.017 646.88 512.479 646.632 515.076 645.272C531.895 636.986 547.724 627.34 561.08 614.108C562.688 612.5 564.296 609.78 567.387 611.387C595.954 639.954 624.645 668.398 653.212 696.965C625.263 725.408 592.863 747.544 555.515 762.137Z" fill="#FFD300"/>
<path d="M326.608 207.863C340.459 241.377 354.186 275.014 368.037 308.528C369.644 312.485 370.139 317.061 374.096 319.658C373.478 322.378 370.881 322.749 368.902 323.739C350.847 332.024 334.523 342.66 320.301 356.51C318.817 357.994 317.333 359.355 314.984 359.355C312.634 358.736 311.15 357.005 309.419 355.397C284.191 330.293 259.086 305.065 233.858 279.837C231.88 277.858 229.406 276.251 229.53 272.912C245.483 254.238 265.517 240.635 286.046 227.773C298.907 219.859 312.263 212.686 326.608 207.863Z" fill="#FFD300"/>
<path d="M163.863 599.515C199.974 584.675 236.208 569.712 272.319 554.872C273.803 554.253 275.039 553.511 275.658 551.904C278.378 552.522 278.749 555.119 279.739 557.098C288.272 574.906 298.289 591.724 312.387 605.699C313.871 607.183 316.097 608.667 314.613 611.511C288.148 637.976 261.56 664.44 234.971 690.781C232.993 692.76 230.767 694.491 228.664 696.47C210.238 680.393 196.387 660.483 183.65 639.954C175.859 627.093 168.81 613.861 163.863 599.515Z" fill="#FFD300"/>
<path d="M718.137 370.608C682.274 385.325 646.287 400.165 610.423 414.881C608.816 415.499 607.084 416.241 606.342 418.096C603.622 417.478 603.251 414.881 602.261 412.902C593.728 395.094 583.711 378.399 569.613 364.301C568.129 362.817 565.903 361.333 567.387 358.489C593.852 332.024 620.44 305.683 646.905 279.219C648.884 277.24 651.11 275.385 653.088 273.53C672.257 290.72 686.849 311.496 700.082 333.385C707.254 345.38 713.561 357.5 718.137 370.608Z" fill="#FFD300"/>
<path d="M229.654 272.912C256.242 299.624 282.707 326.336 309.295 353.048C311.15 354.903 312.881 356.758 314.613 358.613C316.097 360.591 314.613 362.075 313.5 363.188C305.585 371.227 298.66 380.131 292.353 389.406C291.487 390.642 290.25 391.755 288.519 391.632C285.551 390.766 283.325 388.54 280.728 386.932C268.114 379.018 254.387 381.491 243.875 393.363C241.649 395.836 240.536 399.052 237.816 401.03C235.713 401.896 233.735 401.154 231.88 400.412C210.856 391.879 189.957 383.222 169.057 374.442C167.202 373.7 165.223 372.958 164.11 370.979C167.078 359.231 173.262 348.967 179.074 338.579C191.07 316.813 205.662 296.903 222.852 278.971C224.831 276.622 226.686 274.025 229.654 272.912Z" fill="#E19C2F"/>
<path d="M164.11 370.856C182.042 376.915 199.108 385.077 216.669 392.003C223.594 394.723 230.396 397.444 237.321 400.165C238.805 401.278 238.681 402.885 238.434 404.369C237.445 413.026 239.052 421.064 243.133 428.732C243.504 433.802 240.907 438.749 241.897 443.819C243.628 453.589 247.956 461.503 256.118 467.316C258.839 469.171 262.054 470.531 263.662 473.746C264.651 477.704 265.517 481.661 262.302 485C221.863 485 181.424 485 140.985 485C140.243 445.921 148.405 408.574 162.626 372.463C162.874 371.969 163.492 371.474 164.11 370.856Z" fill="#FFD300"/>
<path d="M262.178 485.124C262.178 481.043 262.302 476.962 262.302 472.881C262.673 472.633 262.92 472.51 263.291 472.262C270.711 472.633 277.884 473.623 285.304 471.026C303.73 464.595 312.387 441.469 302.37 424.774C300.267 421.312 297.052 419.457 294.084 416.983C294.208 409.069 292.971 401.525 288.89 394.6C288.272 393.487 287.901 392.25 288.89 391.137C296.31 379.389 305.214 368.877 314.489 358.613C330.071 344.638 346.271 331.653 365.687 323.244C368.531 322.007 371.252 320.894 374.096 319.658C395.491 310.63 417.874 306.92 440.876 306.302C464.744 306.673 487.746 311.372 509.882 320.276C531.4 329.551 550.445 342.536 567.387 358.736C581.609 374.071 594.223 390.642 602.756 409.934C603.993 412.655 605.106 415.499 606.342 418.344C615.37 439.738 619.08 462.122 619.698 485.124C619.327 508.991 614.752 531.993 605.724 554.13C596.573 575.648 583.34 594.569 567.387 611.635C552.053 625.856 535.481 638.47 516.189 647.003C513.469 648.24 510.624 649.353 507.78 650.59C486.386 659.617 464.002 663.204 441 663.946C417.132 663.575 394.13 658.875 371.994 649.971C350.476 640.696 331.555 627.588 314.489 611.635C300.267 596.3 287.653 579.729 279.12 560.437C277.884 557.716 276.647 554.872 275.534 552.027C266.63 530.509 262.92 508.126 262.178 485.124Z" fill="#9F5B46"/>
<path d="M289.014 391.137C294.331 399.052 297.547 407.461 295.073 417.231C296.557 426.877 290.003 432.194 283.572 437.141C279.244 440.356 274.05 441.964 268.485 442.459C260.57 443.077 253.274 441.222 246.72 436.523C244.37 434.791 242.144 433.184 242.144 429.845C235.713 420.817 234.353 410.924 237.321 400.288C248.08 377.657 269.845 373.824 289.014 391.137Z" fill="#FEFEFE"/>
<path d="M242.144 429.721C249.193 437.265 257.85 440.975 268.238 440.727C268.361 451.734 267.743 462.616 262.796 472.757H262.425C247.709 468.676 234.106 447.653 242.144 429.721Z" fill="#CE8924"/>
<path opacity="0.4" d="M339.222 577.75C339.222 561.426 350.971 547.699 366.8 547.575C378.919 547.452 388.071 543.123 395.491 534.096C396.356 533.106 397.222 532.241 398.211 531.375C405.879 525.192 408.97 519.132 406.25 507.631C397.84 471.52 432.467 441.964 467.712 453.96C472.535 455.567 475.256 454.825 478.347 451.363C481.315 447.9 484.654 444.561 488.117 441.593C496.897 434.173 500.978 425.269 501.102 413.397C501.226 398.062 514.087 386.314 529.545 385.572C546.488 384.83 561.946 396.826 564.419 412.902C567.511 433.307 554.65 449.137 534.121 449.508C525.341 449.631 518.044 452.228 512.232 458.906C510.377 461.009 508.398 463.111 506.296 464.842C498.01 471.397 495.042 477.951 497.763 489.947C505.801 524.944 471.793 554.377 437.661 543.247C431.849 541.392 428.262 542.01 424.552 546.586C420.719 551.038 416.39 555.119 412.062 559.076C406.002 564.641 403.405 571.443 403.158 579.481C402.54 599.268 390.049 611.635 371.376 611.14C353.444 610.769 339.222 595.929 339.222 577.75Z" fill="#502A23"/>
<path d="M328.092 564.394C328.092 548.07 339.841 534.343 355.67 534.219C367.789 534.096 376.941 529.767 384.361 520.74C385.226 519.75 386.092 518.885 387.081 518.019C394.749 511.836 397.84 505.776 395.12 494.275C386.71 458.164 421.337 428.608 456.582 440.604C461.405 442.211 464.126 441.469 467.217 438.007C470.185 434.544 473.524 431.205 476.987 428.237C485.767 420.817 489.848 411.913 489.972 400.041C490.096 384.706 502.957 372.958 518.415 372.216C535.358 371.474 550.816 383.47 553.289 399.546C556.381 419.951 543.52 435.781 522.991 436.152C514.211 436.275 506.914 438.872 501.102 445.55C499.247 447.653 497.268 449.755 495.166 451.486C486.88 458.041 483.912 464.595 486.633 476.591C494.671 511.588 460.663 541.021 426.531 529.891C420.719 528.036 417.132 528.654 413.422 533.23C409.589 537.682 405.26 541.763 400.932 545.72C394.872 551.285 392.275 558.087 392.028 566.125C391.41 585.912 378.919 598.279 360.246 597.784C342.314 597.289 328.092 582.573 328.092 564.394Z" fill="#FFD300"/>
<path opacity="0.7" d="M262.796 472.757C264.28 461.998 264.899 451.115 268.238 440.727C282.088 438.501 291.363 430.958 295.073 417.107C300.391 415.128 301.751 420.075 303.483 422.796C316.22 442.088 304.225 469.789 281.346 474.241C274.916 475.478 268.856 475.354 262.796 472.757Z" fill="#502A23"/>
</g>
<defs>
<clipPath id="clip0_10_14">
<rect width="742" height="742" fill="white" transform="translate(70 114)"/>
</clipPath>
</defs>
</svg>
