<svg width="883" height="969" viewBox="0 0 883 969" fill="none" xmlns="http://www.w3.org/2000/svg">
<g clip-path="url(#clip0_10_2)">
<path d="M651.14 396.064H231.96V202.342L441.614 113L651.14 202.342V396.064Z" fill="#FFD300"/>
<path opacity="0.24" d="M441.614 263.645L231.96 353.879V413.015L651.14 412.123V352.986L441.614 263.645Z" fill="#AD6F00"/>
<path opacity="0.46" d="M441.614 113V479.671L231.96 447.808V202.342L441.614 113Z" fill="#AD6F00"/>
<path d="M725.825 667.275H157.402V421.809L441.614 300.605L725.825 421.809V667.275Z" fill="#E19C2F"/>
<path opacity="0.46" d="M441.614 300.605V667.275H157.402V421.809L441.614 300.605Z" fill="#AD6F00"/>
<path opacity="0.24" d="M441.614 487.063L157.402 608.139V667.276H725.825V608.139L441.614 487.063Z" fill="#AD6F00"/>
<path d="M800.382 855.9H82.7174V678.236L441.614 525.297L800.382 678.236V855.9Z" fill="#9F5B46"/>
<path opacity="0.4" d="M441.614 525.297V855.9H82.7174V678.236L441.614 525.297Z" fill="#502A23"/>
</g>
<defs>
<clipPath id="clip0_10_2">
<rect width="717.665" height="742.9" fill="white" transform="translate(82.7174 113)"/>
</clipPath>
</defs>
</svg>
